# xmcd
#
# Track frame offsets: 
#        150
#        49735
#        96416
#        135056
#        172307
#        208718
#        232676
#
# Disc length: 3664 seconds
#
# Revision: 1
# Processed by: cddbd v1.5.2PL0 Copyright (c) Steve Scherf et al.
# Submitted via: ExactAudioCopyFreeDBPlugin 1.0
#
DISCID=570e4e07
DTITLE=DCPRG - Second Report From Iron Mountain USA
DYEAR=2012
DGENRE=Jazz
TTITLE0=Catch 22
TTITLE1=Circle／Line
TTITLE2=殺陣／TA-TE Contact and Solo Dancers
TTITLE3=Microphone Tyson
TTITLE4=Tokyo Girl
TTITLE5=Uncommon Unremix
TTITLE6=Duran
EXTD=YEAR: 2012
EXTT0=
EXTT1=
EXTT2=
EXTT3=
EXTT4=
EXTT5=
EXTT6=
PLAYORDER=
